<svg xmlns="http://www.w3.org/2000/svg" viewBox="0 0 187.31 57.64" style="height: 30px; width: auto;">
    <defs>
        <style>.cls-1{fill:#f3a306}.cls-2{fill:#fff}</style>
    </defs>
    <g id="s_2">
        <path id="Trazado_8" d="M189.49 41.51l3.83 1.42a51.92 51.92 0 015.57 2.44 16.91 16.91 0 015.88 5.21 14.87 14.87 0 012.46 8.9 15.46 15.46 0 01-2.23 8.19 16 16 0 01-6.68 6 23.48 23.48 0 01-10.69 2.22q-9.47 0-15.58-4.61a16.67 16.67 0 01-6.68-12.87h14.47a7.58 7.58 0 002.26 5 7 7 0 005 1.83 5.73 5.73 0 004.13-1.43 5 5 0 001.46-3.81 4.94 4.94 0 00-1.4-3.57 10.84 10.84 0 00-3.45-2.43c-.85-.37-1.89-.79-3.13-1.25l-.71-.25z" class="cls-1" data-name="Trazado 8" transform="translate(-19.94 -18.22)"></path>
    </g>
    <g id="s_1">
        <path id="Trazado_9" d="M184 52.52l-6-2.17c-1.76-.69-3.31-1.37-4.62-2a15.94 15.94 0 01-5.8-5.08 16.55 16.55 0 01.12-17.45 16 16 0 017-5.6 25.61 25.61 0 0110.3-1.95q9.38 0 14.9 4.45a17 17 0 016.24 12.24h-14.65a7.52 7.52 0 00-2-4.41 6 6 0 00-4.41-1.63 5.7 5.7 0 00-3.85 1.27 4.67 4.67 0 00-1.47 3.74 4.73 4.73 0 001.24 3.34 9.86 9.86 0 003.3 2.26c.63.28 1.41.6 2.31.95l2.83 1 .3 7.14z" class="cls-2" data-name="Trazado 9" transform="translate(-19.94 -18.22)"></path>
    </g>
    <g id="o_2">
        <path id="Trazado_5" d="M145 46.92l6.92 4 7.08-4.1a28.59 28.59 0 00-28.6-28.6l4.56 7-4.52 7a14.63 14.63 0 0111.28 5.32 14.83 14.83 0 013.28 9.38z" class="cls-1" data-name="Trazado 5" transform="translate(-19.94 -18.22)"></path>
    </g>
    <g id="o_1">
        <path id="Trazado_7" d="M151.9 51l-6.92-4a14.62 14.62 0 11-14.61-14.8l4.53-7-4.57-7A28.6 28.6 0 10159 46.83z" class="cls-2" data-name="Trazado 7" transform="translate(-19.94 -18.22)"></path>
    </g>
    <g id="i_2">
        <circle id="Elipse_1" cx="68.99" cy="9.2" r="9.2" class="cls-1" data-name="Elipse 1"></circle>
    </g>
    <g id="i_1">
        <path id="Trazado_11" d="M95.94 41.69v32.85h-14V41.69l7 1.59z" class="cls-2" data-name="Trazado 11" transform="translate(-19.94 -18.22)"></path>
    </g>
    <g id="a_2">
        <path id="Trazado_1" d="M62 74.54c-3.2-8.62-13-15.68-21.19-19.74h14.28" class="cls-1" data-name="Trazado 1" transform="translate(-19.94 -18.22)"></path>
    </g>
    <g id="a_1">
        <path id="Trazado_10" d="M76 74.54H62L48 36.62 34 74.54H20l20.3-54.95h15.37z" class="cls-2" data-name="Trazado 10" transform="translate(-19.94 -18.22)"></path>
    </g>
</svg>
